<svg xmlns="http://www.w3.org/2000/svg" width="51" height="50" viewBox="0 0 100 100">
 <g>
  <title>Layer 1</title>
  <path transform="rotate(26.9327)" stroke="#000" id="svg_9" d="m843.44723,419.03379l0.23624,-0.23705l-0.45676,0l-0.45675,0l0,-0.14674l0,-0.14674l0.45152,0c0.24833,0 0.45151,-0.00744 0.45151,-0.01653c0,-0.00909 -0.09886,-0.11576 -0.21969,-0.23705l-0.21969,-0.22052l0.20306,0l0.20306,0l0.31012,0.31071l0.31012,0.31071l-0.31071,0.31012l-0.31071,0.31012l-0.21377,0l-0.21377,0l0.23624,-0.23705l0,0l-0.00002,0.00002z" fill="#784ce0"/>
  <path id="svg_10" d="m865.33723,442.91379l0.23624,-0.23705l-0.45676,0l-0.45675,0l0,-0.14674l0,-0.14674l0.45152,0c0.24833,0 0.45151,-0.00744 0.45151,-0.01653c0,-0.00909 -0.09886,-0.11576 -0.21969,-0.23705l-0.21969,-0.22052l0.20306,0l0.20306,0l0.31012,0.31071l0.31012,0.31071l-0.31071,0.31012l-0.31071,0.31012l-0.21377,0l-0.21377,0l0.23624,-0.23705l0,0l-0.00002,0.00002z" stroke="#000" fill="#784ce0"/>
  <path id="svg_11" d="m871.30723,438.93379l0.23624,-0.23705l-0.45676,0l-0.45675,0l0,-0.14674l0,-0.14674l0.45152,0c0.24833,0 0.45151,-0.00744 0.45151,-0.01653c0,-0.00909 -0.09886,-0.11576 -0.21969,-0.23705l-0.21969,-0.22052l0.20306,0l0.20306,0l0.31012,0.31071l0.31012,0.31071l-0.31071,0.31012l-0.31071,0.31012l-0.21377,0l-0.21377,0l0.23624,-0.23705l0,0l-0.00002,0.00002z" stroke="#000" fill="#784ce0"/>
  <path id="svg_12" d="m914.09223,497.63879l0.23624,-0.23705l-0.45676,0l-0.45675,0l0,-0.14674l0,-0.14674l0.45152,0c0.24833,0 0.45151,-0.00744 0.45151,-0.01653c0,-0.00909 -0.09886,-0.11576 -0.21969,-0.23705l-0.21969,-0.22052l0.20306,0l0.20306,0l0.31012,0.31071l0.31012,0.31071l-0.31071,0.31012l-0.31071,0.31012l-0.21377,0l-0.21377,0l0.23624,-0.23705l0,0l-0.00002,0.00002z" stroke="#000" fill="#784ce0"/>
  <path id="svg_2" d="m89.97594,48.99235l-10.49873,-11.37569l0,-27.16866l-9.00038,0l0,17.41647l-21.00089,-22.7551l-40.5,43.88297l9.64155,-0.24891l0,44.36594l61.28831,0l0,-44.11703l10.07014,0zm-40.5,37.7716l-19.9997,0l0,-26.00583l19.9997,0l0,26.00583zm19.43054,-11.14535l-13.14227,0l0,-15.01651l13.14227,0l0,15.01651z" stroke="#000" fill="#7f007f"/>
 </g>

</svg>