<svg width="50" height="50" xmlns="http://www.w3.org/2000/svg" viewBox="0 0 100 100">
 <g>
  <title>Layer 1</title>
  <path transform="rotate(26.9327)" stroke="#000" id="svg_9" d="m843.44723,419.03379l0.23624,-0.23705l-0.45676,0l-0.45675,0l0,-0.14674l0,-0.14674l0.45152,0c0.24833,0 0.45151,-0.00744 0.45151,-0.01653c0,-0.00909 -0.09886,-0.11576 -0.21969,-0.23705l-0.21969,-0.22052l0.20306,0l0.20306,0l0.31012,0.31071l0.31012,0.31071l-0.31071,0.31012l-0.31071,0.31012l-0.21377,0l-0.21377,0l0.23624,-0.23705l0,0l-0.00002,0.00002z" fill="#784ce0"/>
  <path id="svg_10" d="m865.33723,442.91379l0.23624,-0.23705l-0.45676,0l-0.45675,0l0,-0.14674l0,-0.14674l0.45152,0c0.24833,0 0.45151,-0.00744 0.45151,-0.01653c0,-0.00909 -0.09886,-0.11576 -0.21969,-0.23705l-0.21969,-0.22052l0.20306,0l0.20306,0l0.31012,0.31071l0.31012,0.31071l-0.31071,0.31012l-0.31071,0.31012l-0.21377,0l-0.21377,0l0.23624,-0.23705l0,0l-0.00002,0.00002z" stroke="#000" fill="#784ce0"/>
  <path id="svg_11" d="m871.30723,438.93379l0.23624,-0.23705l-0.45676,0l-0.45675,0l0,-0.14674l0,-0.14674l0.45152,0c0.24833,0 0.45151,-0.00744 0.45151,-0.01653c0,-0.00909 -0.09886,-0.11576 -0.21969,-0.23705l-0.21969,-0.22052l0.20306,0l0.20306,0l0.31012,0.31071l0.31012,0.31071l-0.31071,0.31012l-0.31071,0.31012l-0.21377,0l-0.21377,0l0.23624,-0.23705l0,0l-0.00002,0.00002z" stroke="#000" fill="#784ce0"/>
  <path id="svg_12" d="m914.09223,497.63879l0.23624,-0.23705l-0.45676,0l-0.45675,0l0,-0.14674l0,-0.14674l0.45152,0c0.24833,0 0.45151,-0.00744 0.45151,-0.01653c0,-0.00909 -0.09886,-0.11576 -0.21969,-0.23705l-0.21969,-0.22052l0.20306,0l0.20306,0l0.31012,0.31071l0.31012,0.31071l-0.31071,0.31012l-0.31071,0.31012l-0.21377,0l-0.21377,0l0.23624,-0.23705l0,0l-0.00002,0.00002z" stroke="#000" fill="#784ce0"/>
  <path transform="rotate(179.154 50.87 49.9592)" stroke="#000" id="svg_1" d="m46.59693,78.39553l14.90355,-17.56363l-28.81529,0l-28.81523,0l0,-10.87272l0,-10.87273l28.48466,0c15.66654,0 28.48464,-0.55108 28.48464,-1.22463c0,-0.67353 -6.2368,-8.57717 -13.85954,-17.56363l-13.85959,-16.33902l12.81049,0l12.81045,0l19.56445,23.02203l19.56444,23.02202l-19.60197,22.97797l-19.60197,22.97797l-13.48633,0l-13.48636,0l14.90359,-17.56364l0.00001,0z" fill="#7f007f"/>
 </g>

</svg>